# xmcd CD database file
#
# Track frame offsets:
#	150
#	16788
#	35708
#	51563
#	63957
#	80715
#	96160
#	110152
#	128866
#	143685
#	159471
#	177471
#	191315
#	204455
#	218015
#
# Disc length: 3087 seconds
#
# Revision: 0
# Processed by: cddbd v1.5.2PL0 Copyright (c) Steve Scherf et al.
# Submitted via: CDex 1.70beta2
#
DISCID=d70c0d0f
DTITLE=Various Artist - Cool Measure of Blues
DYEAR=1900
DGENRE=Blues
TTITLE0=Fever - Susan Trexler and Chris LaBarbera
TTITLE1=Here Kitty Kitty - Jump N' Jive
TTITLE2=You Got Troubles - Carol Fran and Clarence Holliman
TTITLE3=Wiggle Room Shuffle - Roger Edsall
TTITLE4=Move That Thang - JJ Jenkins
TTITLE5=Cat Scratchin' - Big Joe Maher
TTITLE6=Eeezy Now - Aquablue
TTITLE7=Good Rockin' Woman - Bradford and Bell
TTITLE8=Optical Illusion - Groove Doctors
TTITLE9=Fine Sweet Woman - Kevin McKendree
TTITLE10=No One Answers the Telephone - Jimmy Morello
TTITLE11=Let Me Be Your Lover - Donny Trexler
TTITLE12=We Got To Go - Jimmy Dawkins
TTITLE13=Moonglow - Teddy Bell
TTITLE14=I'll Never Stop Lovin' You - Jump N' Jive
EXTD=
EXTT0=
EXTT1=
EXTT2=
EXTT3=
EXTT4=
EXTT5=
EXTT6=
EXTT7=
EXTT8=
EXTT9=
EXTT10=
EXTT11=
EXTT12=
EXTT13=
EXTT14=
PLAYORDER=
